<svg width="200" height="200" viewBox="0 0 200 200" fill="none" xmlns="http://www.w3.org/2000/svg">
  <circle cx="100" cy="100" r="96" fill="white"/>
  <path d="M100 12C51.4 12 12 51.4 12 100C12 148.6 51.4 188 100 188C148.6 188 188 148.6 188 100C188 51.4 148.6 12 100 12ZM100 162C65.8 162 38 134.2 38 100C38 65.8 65.8 38 100 38C134.2 38 162 65.8 162 100C162 134.2 134.2 162 100 162Z" fill="#0D1B3E"/>
  <circle cx="100" cy="100" r="54" fill="white"/>
  <path d="M68 78L94 90V136L68 124V78Z" fill="#0077E6"/>
  <path d="M106 90L132 78V124L106 136V90Z" fill="#E52320"/>
</svg>
